<svg width="704" height="367" viewBox="0 0 704 367" fill="none" xmlns="http://www.w3.org/2000/svg">
<path d="M102.23 199.157H50.9561V178.812H91.705L119.418 133.292H463.805L494.656 82.6846H653.5V103.029H505.23L474.33 153.636H129.992L102.23 199.157Z" fill="#FFCE00"/>
<path d="M208.304 87.569H157.03V67.2245H197.779L225.492 21.7036H546.607V42.0481H236.065L208.304 87.569Z" fill="#FFCE00"/>
<path d="M28 218C43.4266 218 56 204.977 56 189C56 173.022 43.4266 160 28 160C12.5734 160 0 173.022 0 189C0 204.977 12.5734 218 28 218C43.4749 218 12.5734 218 28 218ZM28 171.92C37.0915 171.92 44.4421 179.584 44.4421 188.95C44.4421 198.316 37.0432 205.979 28 205.979C18.9085 205.979 11.5579 198.316 11.5579 188.95C11.5579 179.584 18.9568 171.92 28 171.92C37.0915 171.92 18.9568 171.92 28 171.92Z" fill="#FFCE00"/>
<path d="M140.615 263.854H62.3036V243.51H130.042L157.803 197.938H552.45L580.501 152.01L596.723 163.047L563.024 218.283H168.328L140.615 263.854Z" fill="#FFCE00"/>
<path d="M40.4999 284C55.651 284 68 270.753 68 254.5C68 238.247 55.651 225 40.4999 225C25.3488 225 13 238.247 13 254.5C13 270.753 25.3488 284 40.4999 284C55.6985 284 25.3488 284 40.4999 284ZM40.4999 237.177C49.429 237.177 56.6485 244.972 56.6485 254.5C56.6485 264.027 49.3815 271.823 40.4999 271.823C31.5707 271.823 24.3514 264.027 24.3514 254.5C24.3514 244.972 31.6182 237.177 40.4999 237.177C49.429 237.177 31.6182 237.177 40.4999 237.177Z" fill="#FFCE00"/>
<path d="M348.27 318.732H165.528V298.388H337.697L365.458 252.816H533.958V273.16H376.032L348.27 318.732Z" fill="#FFCE00"/>
<path d="M414.366 367H231.624V346.656H403.793L428.706 305.814L444.976 316.8L414.366 367Z" fill="#FFCE00"/>
<path d="M143 338C158.427 338 171 324.753 171 308.5C171 292.247 158.427 279 143 279C127.573 279 115 292.247 115 308.5C115 324.753 127.573 338 143 338C158.475 338 127.573 338 143 338ZM143 291.177C152.092 291.177 159.442 298.973 159.442 308.5C159.442 318.028 152.043 325.823 143 325.823C133.957 325.823 126.558 318.028 126.558 308.5C126.558 298.973 133.957 291.177 143 291.177C152.043 291.177 133.957 291.177 143 291.177Z" fill="#FFCE00"/>
<path d="M565.5 63C582.345 63 596 48.897 596 31.5C596 14.103 582.345 0 565.5 0C548.655 0 535 14.103 535 31.5C535 48.897 548.655 63 565.5 63Z" fill="black"/>
<path d="M673.5 124C690.345 124 704 109.897 704 92.5001C704 75.1031 690.345 61 673.5 61C656.655 61 643 75.1031 643 92.5001C643 109.897 656.655 124 673.5 124Z" fill="black"/>
<path d="M593.5 181C610.345 181 624 166.673 624 149C624 131.327 610.345 117 593.5 117C576.655 117 563 131.327 563 149C563 166.673 576.655 181 593.5 181Z" fill="black"/>
<path d="M536.5 294C552.792 294 566 279.673 566 262C566 244.327 552.792 230 536.5 230C520.208 230 507 244.327 507 262C507 279.673 520.208 294 536.5 294Z" fill="black"/>
<path d="M434.5 345C451.345 345 465 330.449 465 312.5C465 294.551 451.345 280 434.5 280C417.655 280 404 294.551 404 312.5C404 330.449 417.655 345 434.5 345Z" fill="black"/>
</svg>
