<svg width="121" height="93" viewBox="0 0 121 93" fill="none" xmlns="http://www.w3.org/2000/svg">
<path d="M115.459 68.4331V92.62H108.903L85.9372 70.5265V92.62H83.7591V68.4331H90.3158L113.281 90.5266V68.4331H115.459Z" fill="black"/>
<path d="M66.5027 68.4331H61.574L48.0451 92.62H50.9979L55.7919 84.0511H70.4267L75.2319 92.62H80.0709L66.5027 68.4331ZM56.881 82.0996L63.0953 70.9878L69.332 82.0996H56.881Z" fill="black"/>
<path d="M19.7748 80.5265C19.7748 85.9376 23.9401 90.3196 29.071 90.3196H46.6249V92.62H26.2249C23.7156 92.62 21.3859 91.7684 19.4941 90.3196C16.6199 88.1256 14.745 84.5538 14.745 80.5265C14.745 76.4934 16.6199 72.9216 19.4997 70.7276C21.3915 69.2846 23.7156 68.4331 26.2249 68.4331H46.6249V70.7276H29.071C23.9401 70.7276 19.7748 75.1155 19.7748 80.5265Z" fill="black"/>
<path d="M10.3102 68.7879V92.62H5.28035V68.782C6.04942 69.1427 6.9027 69.3379 7.79527 69.3379C8.68784 69.3379 9.54112 69.1427 10.3102 68.7879Z" fill="#FFCE00"/>
<path d="M7.79527 66.381C9.72058 66.381 11.2813 64.7369 11.2813 62.7086C11.2813 60.6804 9.72058 59.0362 7.79527 59.0362C5.86997 59.0362 4.3092 60.6804 4.3092 62.7086C4.3092 64.7369 5.86997 66.381 7.79527 66.381Z" fill="#FFCE00"/>
<mask id="mask0_50_103" style="mask-type:luminance" maskUnits="userSpaceOnUse" x="4" y="2" width="56" height="47">
<path d="M53.2714 2.36548C42.7963 5.15082 32.9724 7.93617 23.244 10.7629C20.3979 11.5908 14.3183 13.4359 9.15377 18.8587C7.08234 21.0291 4.51128 23.8085 4.74144 27.2562C4.97721 30.763 8.95168 32.9983 15.1323 36.7003C18.4724 38.705 21.1445 39.9292 21.9641 40.2958C37.0199 47.132 38.6479 48.0427 40.4667 48.2438C41.5389 48.3621 48.3595 49.0954 52.7044 46.1444C60.5186 40.834 61.501 22.7972 53.2714 2.36548Z" fill="white"/>
</mask>
<g mask="url(#mask0_50_103)">
<path d="M24.5183 17.7055V25.8546H23.2889V19.3673L21.6722 19.8463V18.5453L23.2889 18.0663L24.5183 17.7055ZM32.7816 22.5252V21.4962C32.7816 19.5802 31.3052 18.0249 29.4359 18.0249C27.617 18.0249 26.1406 19.5802 26.1406 21.4962V22.5252C26.1406 24.4412 27.617 25.9965 29.4359 25.9965H29.492C31.2996 25.9965 32.7816 24.4412 32.7816 22.5252ZM31.5466 21.4962V22.5252C31.5466 23.7198 30.6203 24.6955 29.4864 24.6955H29.4302C28.2963 24.6955 27.37 23.7198 27.37 22.5252V21.4962C27.37 20.3016 28.2963 19.3259 29.4808 19.3259C30.6203 19.3259 31.5466 20.2957 31.5466 21.4962Z" fill="black"/>
<path d="M12.8475 17.7055V25.8546H11.6182V19.3673L10.0014 19.8463V18.5453L11.6182 18.0663L12.8475 17.7055ZM21.1108 22.5252V21.4962C21.1108 19.5802 19.6344 18.0249 17.7651 18.0249C15.9463 18.0249 14.4699 19.5802 14.4699 21.4962V22.5252C14.4699 24.4412 15.9463 25.9965 17.7651 25.9965H17.8212C19.6344 25.9965 21.1108 24.4412 21.1108 22.5252ZM19.8758 21.4962V22.5252C19.8758 23.7198 18.9496 24.6955 17.8156 24.6955H17.7595C16.6255 24.6955 15.6993 23.7198 15.6993 22.5252V21.4962C15.6993 20.3016 16.6255 19.3259 17.81 19.3259C18.9496 19.3259 19.8758 20.2957 19.8758 21.4962Z" fill="black"/>
<path d="M35.9982 17.7055V25.8546H34.7688V19.3673L33.1521 19.8463V18.5453L34.7688 18.0663L35.9982 17.7055ZM44.2615 22.5252V21.4962C44.2615 19.5802 42.7851 18.0249 40.9158 18.0249C39.0969 18.0249 37.6206 19.5802 37.6206 21.4962V22.5252C37.6206 24.4412 39.0969 25.9965 40.9158 25.9965H40.9719C42.7795 25.9965 44.2615 24.4412 44.2615 22.5252ZM43.0265 21.4962V22.5252C43.0265 23.7198 42.1002 24.6955 40.9663 24.6955H40.9101C39.7762 24.6955 38.8499 23.7198 38.8499 22.5252V21.4962C38.8499 20.3016 39.7762 19.3259 40.9607 19.3259C42.1002 19.3259 43.0265 20.2957 43.0265 21.4962Z" fill="black"/>
<path d="M36.4529 37.3804V45.5294H35.2235V39.0421L33.6068 39.5211V38.2201L35.2235 37.7411L36.4529 37.3804ZM44.7162 42.2V41.171C44.7162 39.255 43.2398 37.6997 41.3705 37.6997C39.5516 37.6997 38.0753 39.255 38.0753 41.171V42.2C38.0753 44.116 39.5516 45.6713 41.3705 45.6713H41.4266C43.2342 45.6713 44.7162 44.1101 44.7162 42.2ZM43.4812 41.1651V42.1941C43.4812 43.3887 42.5549 44.3644 41.421 44.3644H41.3649C40.2309 44.3644 39.3046 43.3887 39.3046 42.1941V41.1651C39.3046 39.9705 40.2309 38.9948 41.4154 38.9948C42.5549 39.0007 43.4812 39.9705 43.4812 41.1651Z" fill="black"/>
<path d="M24.7821 37.3804V45.5294H23.5528V39.0421L21.936 39.5211V38.2201L23.5528 37.7411L24.7821 37.3804ZM33.0454 42.2V41.171C33.0454 39.255 31.569 37.6997 29.6997 37.6997C27.8809 37.6997 26.4045 39.255 26.4045 41.171V42.2C26.4045 44.116 27.8809 45.6713 29.6997 45.6713H29.7558C31.569 45.6713 33.0454 44.1101 33.0454 42.2ZM31.8104 41.1651V42.1941C31.8104 43.3887 30.8842 44.3644 29.7502 44.3644H29.6941C28.5601 44.3644 27.6339 43.3887 27.6339 42.1941V41.1651C27.6339 39.9705 28.5601 38.9948 29.7446 38.9948C30.8842 39.0007 31.8104 39.9705 31.8104 41.1651Z" fill="black"/>
<path d="M30.5025 27.54V35.6891H29.2731V29.2018L27.6563 29.6808V28.3797L29.2731 27.9007L30.5025 27.54ZM38.7657 32.3597V31.3307C38.7657 29.4147 37.2893 27.8593 35.42 27.8593C33.6012 27.8593 32.1248 29.4147 32.1248 31.3307V32.3597C32.1248 34.2757 33.6012 35.831 35.42 35.831H35.4761C37.2893 35.831 38.7657 34.2757 38.7657 32.3597ZM37.5307 31.3307V32.3597C37.5307 33.5542 36.6045 34.53 35.4705 34.53H35.4144C34.2804 34.53 33.3542 33.5542 33.3542 32.3597V31.3307C33.3542 30.1361 34.2804 29.1604 35.4649 29.1604C36.6045 29.1604 37.5307 30.1361 37.5307 31.3307Z" fill="black"/>
<path d="M18.8317 27.54V35.6891H17.6023V29.2018L15.9856 29.6808V28.3797L17.6023 27.9007L18.8317 27.54ZM27.095 32.3597V31.3307C27.095 29.4147 25.6186 27.8593 23.7492 27.8593C21.9304 27.8593 20.454 29.4147 20.454 31.3307V32.3597C20.454 34.2757 21.9304 35.831 23.7492 35.831H23.8054C25.6186 35.831 27.095 34.2757 27.095 32.3597ZM25.86 31.3307V32.3597C25.86 33.5542 24.9337 34.53 23.7998 34.53H23.7436C22.6097 34.53 21.6834 33.5542 21.6834 32.3597V31.3307C21.6834 30.1361 22.6097 29.1604 23.7941 29.1604C24.9393 29.1604 25.86 30.1361 25.86 31.3307Z" fill="black"/>
<path d="M41.9823 27.54V35.6891H40.753V29.2018L39.1362 29.6808V28.3797L40.753 27.9007L41.9823 27.54ZM50.2457 32.3597V31.3307C50.2457 29.4147 48.7692 27.8593 46.8999 27.8593C45.0811 27.8593 43.6047 29.4147 43.6047 31.3307V32.3597C43.6047 34.2757 45.0811 35.831 46.8999 35.831H46.956C48.7692 35.831 50.2457 34.2757 50.2457 32.3597ZM49.0106 31.3307V32.3597C49.0106 33.5542 48.0844 34.53 46.9504 34.53H46.8943C45.7603 34.53 44.8341 33.5542 44.8341 32.3597V31.3307C44.8341 30.1361 45.7603 29.1604 46.9448 29.1604C48.0844 29.1604 49.0106 30.1361 49.0106 31.3307Z" fill="black"/>
<path d="M29.6997 7.87112V16.0202H28.4703V9.53287L26.8536 10.0119V8.71086L28.4703 8.23185L29.6997 7.87112ZM37.9574 12.6908V11.6618C37.9574 9.74574 36.481 8.19045 34.6116 8.19045C32.7928 8.19045 31.3164 9.74574 31.3164 11.6618V12.6908C31.3164 14.6068 32.7928 16.1621 34.6116 16.1621H34.6678C36.481 16.1621 37.9574 14.6009 37.9574 12.6908ZM36.7224 11.6559V12.6848C36.7224 13.8794 35.7961 14.8552 34.6622 14.8552H34.606C33.4721 14.8552 32.5458 13.8794 32.5458 12.6848V11.6559C32.5458 10.4613 33.4721 9.48555 34.6565 9.48555C35.8017 9.48555 36.7224 10.4613 36.7224 11.6559Z" fill="black"/>
<path d="M18.0289 7.87112V16.0202H16.7995V9.53287L15.1828 10.0119V8.71086L16.7995 8.23185L18.0289 7.87112ZM26.2866 12.6908V11.6618C26.2866 9.74574 24.8102 8.19045 22.9409 8.19045C21.1221 8.19045 19.6457 9.74574 19.6457 11.6618V12.6908C19.6457 14.6068 21.1221 16.1621 22.9409 16.1621H22.997C24.8102 16.1621 26.2866 14.6009 26.2866 12.6908ZM25.0516 11.6559V12.6848C25.0516 13.8794 24.1254 14.8552 22.9914 14.8552H22.9353C21.8013 14.8552 20.8751 13.8794 20.8751 12.6848V11.6559C20.8751 10.4613 21.8013 9.48555 22.9858 9.48555C24.131 9.48555 25.0516 10.4613 25.0516 11.6559Z" fill="black"/>
<path d="M41.1796 7.87112V16.0202H39.9502V9.53287L38.3335 10.0119V8.71086L39.9502 8.23185L41.1796 7.87112ZM49.4373 12.6908V11.6618C49.4373 9.74574 47.9609 8.19045 46.0915 8.19045C44.2727 8.19045 42.7963 9.74574 42.7963 11.6618V12.6908C42.7963 14.6068 44.2727 16.1621 46.0915 16.1621H46.1477C47.9609 16.1621 49.4373 14.6009 49.4373 12.6908ZM48.2023 11.6559V12.6848C48.2023 13.8794 47.276 14.8552 46.1421 14.8552H46.0859C44.952 14.8552 44.0257 13.8794 44.0257 12.6848V11.6559C44.0257 10.4613 44.952 9.48555 46.1365 9.48555C47.2816 9.48555 48.2023 10.4613 48.2023 11.6559Z" fill="black"/>
</g>
<path d="M76.6747 27.3093C76.6747 39.6512 67.1764 49.6572 55.4607 49.6572C43.7394 49.6572 34.2467 39.6512 34.2467 27.3093C34.2467 14.9675 43.7394 4.96158 55.4607 4.96158C57.5714 4.96158 59.6148 5.28682 61.5459 5.89593C59.7439 6.90126 58.5258 8.89417 58.5258 11.1887C58.5258 11.8924 58.6381 12.5607 58.8458 13.1875C59.6261 15.5175 61.7368 17.1911 64.218 17.1911C64.5829 17.1911 64.9478 17.1556 65.2958 17.0787C67.9286 16.5465 69.9158 14.1159 69.9158 11.1887C69.9158 11.1059 69.9158 11.029 69.9102 10.9462C74.0699 15.0326 76.6747 20.8516 76.6747 27.3093Z" fill="#FFCE00"/>
<path d="M69.2815 27.3094C69.2815 35.346 63.0896 41.8688 55.4607 41.8688C47.8318 41.8688 41.6399 35.346 41.6399 27.3094C41.6399 19.2727 47.8318 12.7499 55.4607 12.7499C56.6283 12.7499 57.7567 12.9037 58.8457 13.1875C59.626 15.5175 61.7367 17.1911 64.218 17.1911C64.5828 17.1911 64.9478 17.1556 65.2958 17.0787C67.7546 19.7103 69.2815 23.3235 69.2815 27.3094Z" fill="black"/>
<path d="M51.0821 25.3342H45.1204V22.9687H49.8583L53.0805 17.676H93.1227L96.7098 11.7919H115.179V14.1573H97.9391L94.3464 20.0415H54.3099L51.0821 25.3342Z" fill="#FFCE00"/>
<path d="M63.4152 12.3596H57.4536V9.99413H62.1915L65.4137 4.70139H102.75V7.06686H66.6431L63.4152 12.3596Z" fill="#FFCE00"/>
<path d="M42.4988 27.5814C44.2896 27.5814 45.7491 26.0438 45.7491 24.1574C45.7491 22.2709 44.2896 20.7334 42.4988 20.7334C40.7081 20.7334 39.2485 22.2709 39.2485 24.1574C39.2485 26.0438 40.7081 27.5814 42.4988 27.5814C44.2952 27.5814 40.7081 27.5814 42.4988 27.5814ZM42.4988 22.1408C43.5542 22.1408 44.4074 23.0456 44.4074 24.1515C44.4074 25.2573 43.5486 26.1621 42.4988 26.1621C41.4434 26.1621 40.5902 25.2573 40.5902 24.1515C40.5902 23.0456 41.4491 22.1408 42.4988 22.1408C43.5542 22.1408 41.4491 22.1408 42.4988 22.1408Z" fill="#FFCE00"/>
<path d="M55.5449 32.8564H46.4396V30.4909H54.3155L57.5434 25.1923H103.429L106.691 19.8522L108.577 21.1355L104.659 27.5577H58.7672L55.5449 32.8564Z" fill="#FFCE00"/>
<path d="M43.8405 35.0977C45.6312 35.0977 47.0908 33.5601 47.0908 31.6736C47.0908 29.7872 45.6312 28.2496 43.8405 28.2496C42.0497 28.2496 40.5902 29.7872 40.5902 31.6736C40.5902 33.5601 42.0497 35.0977 43.8405 35.0977C45.6368 35.0977 42.0497 35.0977 43.8405 35.0977ZM43.8405 29.663C44.8958 29.663 45.7491 30.5678 45.7491 31.6736C45.7491 32.7795 44.8902 33.6843 43.8405 33.6843C42.7851 33.6843 41.9318 32.7795 41.9318 31.6736C41.9318 30.5678 42.7907 29.663 43.8405 29.663C44.8958 29.663 42.7907 29.663 43.8405 29.663Z" fill="#FFCE00"/>
<path d="M79.6892 39.2373H58.4416V36.8718H78.4598L81.6876 31.5731H101.279V33.9386H82.917L79.6892 39.2373Z" fill="#FFCE00"/>
<path d="M87.3743 44.8493H66.1266V42.4839H86.1449L89.0415 37.7352L90.9333 39.0125L87.3743 44.8493Z" fill="#FFCE00"/>
<path d="M48.7412 37.2798H41.4098V39.6453H47.5118L50.4084 44.3999L52.2946 43.1226L48.7412 37.2798Z" fill="#FFCE00"/>
<path d="M55.8424 41.4785C57.6332 41.4785 59.0927 39.941 59.0927 38.0545C59.0927 36.1681 57.6332 34.6305 55.8424 34.6305C54.0517 34.6305 52.5921 36.1681 52.5921 38.0545C52.5921 39.941 54.0517 41.4785 55.8424 41.4785C57.6388 41.4785 54.0517 41.4785 55.8424 41.4785ZM55.8424 36.0439C56.8978 36.0439 57.7511 36.9487 57.7511 38.0545C57.7511 39.1604 56.8922 40.0652 55.8424 40.0652C54.7927 40.0652 53.9338 39.1604 53.9338 38.0545C53.9338 36.9487 54.7927 36.0439 55.8424 36.0439C56.8922 36.0439 54.7927 36.0439 55.8424 36.0439Z" fill="#FFCE00"/>
<path d="M104.906 9.52102C106.85 9.52102 108.425 7.86096 108.425 5.81315C108.425 3.76535 106.85 2.10529 104.906 2.10529C102.962 2.10529 101.386 3.76535 101.386 5.81315C101.386 7.86096 102.962 9.52102 104.906 9.52102Z" fill="black"/>
<path d="M117.48 16.6411C119.424 16.6411 121 14.981 121 12.9332C121 10.8854 119.424 9.22534 117.48 9.22534C115.536 9.22534 113.961 10.8854 113.961 12.9332C113.961 14.981 115.536 16.6411 117.48 16.6411Z" fill="black"/>
<path d="M108.263 23.2585C110.207 23.2585 111.782 21.5984 111.782 19.5506C111.782 17.5028 110.207 15.8427 108.263 15.8427C106.319 15.8427 104.743 17.5028 104.743 19.5506C104.743 21.5984 106.319 23.2585 108.263 23.2585Z" fill="black"/>
<path d="M101.633 36.4046C103.577 36.4046 105.153 34.7446 105.153 32.6967C105.153 30.6489 103.577 28.9889 101.633 28.9889C99.689 28.9889 98.1132 30.6489 98.1132 32.6967C98.1132 34.7446 99.689 36.4046 101.633 36.4046Z" fill="black"/>
<path d="M89.7825 42.2118C91.7264 42.2118 93.3023 40.5517 93.3023 38.5039C93.3023 36.4561 91.7264 34.7961 89.7825 34.7961C87.8386 34.7961 86.2628 36.4561 86.2628 38.5039C86.2628 40.5517 87.8386 42.2118 89.7825 42.2118Z" fill="black"/>
<path d="M82.0638 4.86105C80.3685 4.44118 78.6675 4.06862 76.961 3.79067C75.2544 3.51273 73.5367 3.31167 71.8469 3.19931C70.146 3.1106 68.4451 3.1047 66.7441 3.17566C65.0488 3.25254 63.3535 3.40037 61.6638 3.58961C58.2844 4.00948 54.9218 4.59494 51.5985 5.36371C48.2247 6.11475 44.9239 6.93084 41.6848 7.94799C35.2011 9.9409 28.9643 12.6021 23.0981 15.9315C20.1678 17.5991 17.3609 19.4856 14.6327 21.4667C13.2798 22.472 11.9494 23.5246 10.6582 24.6068C10.6526 24.6127 10.647 24.6186 10.6414 24.6186C11.6575 25.6121 12.6399 26.6411 13.6222 27.6878C14.6383 28.77 15.6937 29.8286 16.7771 30.8458C17.8549 31.8807 18.9496 32.8919 20.0892 33.8617C22.3402 35.8251 24.698 37.6819 27.1848 39.3555C29.6548 41.0527 32.2427 42.608 34.9429 43.9445C40.3263 46.6412 46.1589 48.5158 52.1711 49.3851C58.1777 50.2544 64.3303 50.3136 70.4435 49.5684C64.4482 51.0055 58.2339 51.6501 52.0027 51.4076C45.7828 51.1415 39.518 50.213 33.3767 48.433C27.2297 46.7003 21.2456 44.0628 15.6375 40.6506C14.2397 39.7872 12.8756 38.8706 11.5283 37.9126C10.1923 36.9486 8.88432 35.9315 7.60441 34.8789C6.31889 33.8203 5.10073 32.6849 3.978 31.443C2.85528 30.2012 1.81113 28.8765 0.957861 27.3981L0.643498 26.8599C-0.462389 24.9498 -0.09751 22.5311 1.39011 21.0645C2.72054 19.7517 4.19132 18.6163 5.67894 17.5222C7.17778 16.4341 8.69907 15.3933 10.2484 14.3998C13.3696 12.4483 16.5526 10.621 19.8478 9.04202C26.427 5.88412 33.3373 3.56005 40.3488 2.13485C43.8573 1.4193 47.3883 0.91664 50.8688 0.532251C54.3997 0.153775 57.9532 -0.0532061 61.5122 0.0118443C65.0601 0.0887221 68.6247 0.425795 72.1052 1.22414C73.851 1.62627 75.5407 2.16441 77.2024 2.77352C78.864 3.38263 80.492 4.06862 82.0638 4.86105Z" fill="black"/>
</svg>
