<svg width="60" height="60" viewBox="0 0 60 60" fill="none" xmlns="http://www.w3.org/2000/svg">
<g clip-path="url(#clip0_111_302)">
<path d="M22.5 3.75V15H3.75V3.75H22.5ZM3.75 0C2.75544 0 1.80161 0.395088 1.09835 1.09835C0.395088 1.80161 0 2.75544 0 3.75L0 15C0 15.9946 0.395088 16.9484 1.09835 17.6516C1.80161 18.3549 2.75544 18.75 3.75 18.75H22.5C23.4946 18.75 24.4484 18.3549 25.1516 17.6516C25.8549 16.9484 26.25 15.9946 26.25 15V3.75C26.25 2.75544 25.8549 1.80161 25.1516 1.09835C24.4484 0.395088 23.4946 0 22.5 0L3.75 0ZM56.25 45V56.25H37.5V45H56.25ZM37.5 41.25C36.5054 41.25 35.5516 41.6451 34.8484 42.3484C34.1451 43.0516 33.75 44.0054 33.75 45V56.25C33.75 57.2446 34.1451 58.1984 34.8484 58.9016C35.5516 59.6049 36.5054 60 37.5 60H56.25C57.2446 60 58.1984 59.6049 58.9016 58.9016C59.6049 58.1984 60 57.2446 60 56.25V45C60 44.0054 59.6049 43.0516 58.9016 42.3484C58.1984 41.6451 57.2446 41.25 56.25 41.25H37.5ZM22.5 30V56.25H3.75V30H22.5ZM3.75 26.25C2.75544 26.25 1.80161 26.6451 1.09835 27.3484C0.395088 28.0516 0 29.0054 0 30L0 56.25C0 57.2446 0.395088 58.1984 1.09835 58.9016C1.80161 59.6049 2.75544 60 3.75 60H22.5C23.4946 60 24.4484 59.6049 25.1516 58.9016C25.8549 58.1984 26.25 57.2446 26.25 56.25V30C26.25 29.0054 25.8549 28.0516 25.1516 27.3484C24.4484 26.6451 23.4946 26.25 22.5 26.25H3.75ZM56.25 3.75V30H37.5V3.75H56.25ZM37.5 0C36.5054 0 35.5516 0.395088 34.8484 1.09835C34.1451 1.80161 33.75 2.75544 33.75 3.75V30C33.75 30.9946 34.1451 31.9484 34.8484 32.6516C35.5516 33.3549 36.5054 33.75 37.5 33.75H56.25C57.2446 33.75 58.1984 33.3549 58.9016 32.6516C59.6049 31.9484 60 30.9946 60 30V3.75C60 2.75544 59.6049 1.80161 58.9016 1.09835C58.1984 0.395088 57.2446 0 56.25 0L37.5 0Z" fill="#FFCE00"/>
</g>
<defs>
<clipPath id="clip0_111_302">
<rect width="60" height="60" fill="white"/>
</clipPath>
</defs>
</svg>