<svg width="684" height="385" viewBox="0 0 684 385" fill="none" xmlns="http://www.w3.org/2000/svg">
<path d="M53.6945 209.176H0V187.872H42.6725L71.6938 140.202H432.337L464.645 87.2061H630.987V108.511H475.717L443.359 161.507H82.7664L53.6945 209.176Z" fill="#FFCE00"/>
<path d="M164.775 92.3183H111.081V71.0134H153.753L182.775 23.3438H519.048V44.6486H193.847L164.775 92.3183Z" fill="#FFCE00"/>
<path d="M93.891 276.925H11.8828V255.62H82.8184L111.89 207.898H525.167L554.542 159.802L571.53 171.36L536.239 229.202H122.912L93.891 276.925Z" fill="#FFCE00"/>
<path d="M311.348 334.396H119.979V313.091H300.276L329.348 265.368H505.802V286.673H340.42L311.348 334.396Z" fill="#FFCE00"/>
<path d="M380.565 384.94H189.196V363.635H369.492L395.581 320.865L412.62 332.37L380.565 384.94Z" fill="#FFCE00"/>
<path d="M138 311C153.978 311 167 297.08 167 280C167 262.921 153.978 249 138 249C122.022 249 109 262.921 109 280C109 297.08 122.022 311 138 311C154.028 311 122.022 311 138 311ZM138 261.796C147.416 261.796 155.03 269.988 155.03 280C155.03 290.012 147.366 298.204 138 298.204C128.634 298.204 120.971 290.012 120.971 280C120.971 269.988 128.634 261.796 138 261.796C147.366 261.796 128.634 261.796 138 261.796Z" fill="#FFCE00"/>
<path d="M538.417 67C556.091 67 570.417 52.0016 570.417 33.5C570.417 14.9984 556.091 0 538.417 0C520.744 0 506.417 14.9984 506.417 33.5C506.417 52.0016 520.744 67 538.417 67Z" fill="black"/>
<path d="M651.917 131C669.314 131 683.417 116.002 683.417 97.5001C683.417 78.9986 669.314 64 651.917 64C634.52 64 620.417 78.9986 620.417 97.5001C620.417 116.002 634.52 131 651.917 131Z" fill="black"/>
<path d="M568.917 190C586.314 190 600.417 175.225 600.417 157C600.417 138.775 586.314 124 568.917 124C551.52 124 537.417 138.775 537.417 157C537.417 175.225 551.52 190 568.917 190Z" fill="black"/>
<path d="M508.917 309C526.314 309 540.417 294.002 540.417 275.5C540.417 256.999 526.314 242 508.917 242C491.52 242 477.417 256.999 477.417 275.5C477.417 294.002 491.52 309 508.917 309Z" fill="black"/>
<path d="M402.417 361C420.091 361 434.417 346.001 434.417 327.5C434.417 308.998 420.091 294 402.417 294C384.744 294 370.417 308.998 370.417 327.5C370.417 346.001 384.744 361 402.417 361Z" fill="black"/>
</svg>
