<svg width="40" height="40" viewBox="0 0 40 40" fill="none" xmlns="http://www.w3.org/2000/svg">
<g clip-path="url(#clip0_107_173)">
<path d="M39.9999 20.1225C39.9999 9.0075 31.0449 -0.00250244 19.9999 -0.00250244C8.94987 -2.44123e-06 -0.00512695 9.0075 -0.00512695 20.125C-0.00512695 30.1675 7.30987 38.4925 16.8699 40.0025V25.94H11.7949V20.125H16.8749V15.6875C16.8749 10.645 19.8624 7.86 24.4299 7.86C26.6199 7.86 28.9074 8.2525 28.9074 8.2525V13.2025H26.3849C23.9024 13.2025 23.1274 14.755 23.1274 16.3475V20.1225H28.6724L27.7874 25.9375H23.1249V40C32.6849 38.49 39.9999 30.165 39.9999 20.1225Z" fill="#FFCE00"/>
</g>
<defs>
<clipPath id="clip0_107_173">
<rect width="40" height="40" fill="white"/>
</clipPath>
</defs>
</svg>
