<svg width="60" height="60" viewBox="0 0 60 60" fill="none" xmlns="http://www.w3.org/2000/svg">
<path d="M10 8C9.46958 8.00005 8.96091 8.21078 8.58584 8.58584C8.21078 8.96091 8.00005 9.46958 8 10V42C8.00005 42.5304 8.21078 43.0391 8.58584 43.4142C8.96091 43.7892 9.46958 43.9999 10 44H23.9961V48H15.6602C15.1522 48 14.663 48.195 14.293 48.543L10.3164 52.2734C9.65441 52.8914 10.0979 54 11.0039 54H48.9961C49.9021 54 50.3456 52.8895 49.6836 52.2695L45.707 48.5391C45.335 48.1931 44.8478 48 44.3398 48H35.9961V44H50C50.5304 43.9999 51.0391 43.7892 51.4142 43.4142C51.7892 43.0391 51.9999 42.5304 52 42V10C51.9999 9.46958 51.7892 8.96091 51.4142 8.58584C51.0391 8.21078 50.5304 8.00005 50 8H10ZM12 12H48V40H12V12ZM23.9609 17.9805C23.4413 17.996 22.9482 18.2131 22.5859 18.5859L16.5859 24.5859C16.211 24.961 16.0004 25.4697 16.0004 26C16.0004 26.5303 16.211 27.039 16.5859 27.4141L22.5859 33.4141C22.7702 33.606 22.991 33.7593 23.2352 33.8648C23.4795 33.9704 23.7423 34.0262 24.0084 34.0289C24.2745 34.0316 24.5385 33.9812 24.7848 33.8806C25.0312 33.78 25.255 33.6313 25.4431 33.4431C25.6313 33.255 25.78 33.0312 25.8806 32.7848C25.9812 32.5385 26.0316 32.2745 26.0289 32.0084C26.0262 31.7423 25.9704 31.4795 25.8648 31.2352C25.7593 30.991 25.606 30.7702 25.4141 30.5859L20.8281 26L25.4141 21.4141C25.7031 21.1331 25.9005 20.7715 25.9804 20.3764C26.0603 19.9814 26.019 19.5714 25.8619 19.2002C25.7048 18.8291 25.4393 18.514 25.1001 18.2963C24.7609 18.0787 24.3638 17.9686 23.9609 17.9805ZM35.9805 17.9805C35.5826 17.9806 35.1938 18.0993 34.8638 18.3216C34.5338 18.5438 34.2775 18.8594 34.1278 19.228C33.9781 19.5966 33.9417 20.0015 34.0233 20.3909C34.1049 20.7803 34.3008 21.1366 34.5859 21.4141L39.1719 26L34.5859 30.5859C34.394 30.7702 34.2407 30.991 34.1352 31.2352C34.0296 31.4795 33.9738 31.7423 33.9711 32.0084C33.9684 32.2745 34.0188 32.5385 34.1194 32.7848C34.22 33.0312 34.3687 33.255 34.5569 33.4431C34.745 33.6313 34.9688 33.78 35.2152 33.8806C35.4615 33.9812 35.7255 34.0316 35.9916 34.0289C36.2577 34.0262 36.5205 33.9704 36.7648 33.8648C37.009 33.7593 37.2298 33.606 37.4141 33.4141L43.4141 27.4141C43.789 27.039 43.9996 26.5303 43.9996 26C43.9996 25.4697 43.789 24.961 43.4141 24.5859L37.4141 18.5859C37.2277 18.3943 37.0048 18.2421 36.7586 18.1381C36.5123 18.0341 36.2478 17.9805 35.9805 17.9805Z" fill="#FFCE00"/>
</svg>
